<svg xmlns="http://www.w3.org/2000/svg" xmlns:xlink="http://www.w3.org/1999/xlink" width="85" height="70" viewBox="0 0 85 70"><defs><path id="ddw3a" d="M1780.92 1698h-80.83c-.6 0-1.07-.48-1.07-1.08v-63.84c0-.6.48-1.08 1.07-1.08h80.83c.6 0 1.08.48 1.08 1.08v63.84c0 .6-.48 1.08-1.08 1.08zm-79.75-2.15h78.67v-51.67h-78.67zm78.67-61.7h-78.67v7.87h78.67zm-71.6 5.01h-4.8a1.08 1.08 0 1 1 0-2.15h4.8a1.08 1.08 0 1 1 0 2.15zm7.67 0h-4.8a1.08 1.08 0 1 1 0-2.15h4.8a1.08 1.08 0 1 1 0 2.15zm7.66 0h-4.79a1.08 1.08 0 1 1 0-2.15h4.8a1.08 1.08 0 1 1 0 2.15zm-3.61 48.72a3.34 3.34 0 0 1-3.34-3.33v-2.42a3.34 3.34 0 0 1 6.67 0v2.42c0 1.83-1.5 3.33-3.33 3.33zm0-6.94c-.66 0-1.19.53-1.19 1.19v2.42a1.18 1.18 0 0 0 2.37 0v-2.42c0-.66-.53-1.19-1.18-1.19zm33.7-21.9c-.6 0-1.08-.48-1.08-1.07v-6.94a1.08 1.08 0 0 1 2.15 0v6.94c0 .6-.48 1.08-1.08 1.08zm12.33 3.31a3.34 3.34 0 0 1-3.34-3.33v-2.42a3.34 3.34 0 0 1 6.67 0v2.42c0 1.84-1.5 3.33-3.33 3.33zm0-6.93c-.65 0-1.18.53-1.18 1.18v2.42a1.18 1.18 0 0 0 2.36 0v-2.42c0-.65-.53-1.18-1.18-1.18zm-.45 31.17c-.6 0-1.08-.48-1.08-1.07v-6.94a1.08 1.08 0 0 1 2.16 0v6.94c0 .6-.49 1.07-1.08 1.07zm-8.77 4.39c-.6 0-1.08-.48-1.08-1.08v-6.93a1.08 1.08 0 0 1 2.16 0v6.93c0 .6-.48 1.08-1.08 1.08zm-44-12.67c-.6 0-1.08-.48-1.08-1.07v-6.94a1.08 1.08 0 0 1 2.16 0v6.94c0 .59-.49 1.07-1.08 1.07zm8.53-19.43a3.34 3.34 0 0 1-3.34-3.34v-2.42a3.34 3.34 0 0 1 6.68 0v2.42c0 1.84-1.5 3.34-3.34 3.34zm0-6.94c-.65 0-1.18.53-1.18 1.18v2.42a1.18 1.18 0 0 0 2.36 0v-2.42c0-.65-.53-1.18-1.18-1.18zm38.18 21.9a3.34 3.34 0 0 1-3.34-3.34v-2.42a3.34 3.34 0 0 1 6.68 0v2.42c0 1.84-1.5 3.34-3.34 3.34zm0-6.94c-.65 0-1.18.53-1.18 1.18v2.42a1.18 1.18 0 0 0 2.36 0v-2.42c0-.65-.53-1.18-1.18-1.18zm-40.44 4.42c-.6 0-1.08-.49-1.08-1.08v-6.94a1.08 1.08 0 0 1 2.16 0v6.94c0 .6-.49 1.08-1.08 1.08zm15.78-16.98a1.08 1.08 0 1 1 .79-2c2.07.8 2.72 2.7 2.92 4a8.28 8.28 0 0 1 1.73.01c.2-1.3.85-3.21 2.92-4.02.56-.21 1.18.06 1.4.62.22.55-.06 1.17-.61 1.39-1.21.47-1.53 1.77-1.6 2.56.88.41 1.63 1.02 2.2 1.8 1.06 1.5 1.31 3.5.72 5.68.85.84 1.6 1.86 2.22 3l2.49-1.63-.84-4.53a1.08 1.08 0 1 1 2.12-.4l.97 5.24c.08.42-.1.86-.47 1.1l-3.39 2.22c.3.8.53 1.64.7 2.52l3.24-.64c.39-.07.79.07 1.04.38l2.98 3.64a1.08 1.08 0 1 1-1.67 1.37l-2.57-3.15-2.74.54c.03.42.04.85.04 1.29 0 .88-.1 1.7-.28 2.45l2.8.82a1.08 1.08 0 0 1 .71 1.43l-2.15 5.47a1.08 1.08 0 0 1-2-.8l1.71-4.36-1.82-.54c-1.87 3.62-5.9 5.29-8.98 5.29-3.1 0-7.12-1.67-8.99-5.29l-1.82.54 1.72 4.37a1.08 1.08 0 1 1-2 .79l-2.16-5.47a1.08 1.08 0 0 1 .7-1.43l2.81-.82c-.18-.75-.28-1.57-.28-2.45 0-.44.01-.87.04-1.3l-2.74-.53-2.57 3.15a1.07 1.07 0 0 1-1.52.15 1.08 1.08 0 0 1-.15-1.52l2.98-3.64c.25-.31.66-.45 1.05-.38l3.23.64c.17-.88.4-1.72.7-2.52l-3.4-2.23a1.08 1.08 0 0 1-.46-1.1l.97-5.22c.11-.59.68-.98 1.26-.86.58.1.97.67.86 1.25l-.84 4.53 2.5 1.64a12.57 12.57 0 0 1 2.21-3c-.59-2.2-.34-4.2.73-5.69a5.44 5.44 0 0 1 2.2-1.8c-.08-.8-.4-2.09-1.6-2.56zm4.58 7.44c1.42 0 2.77.4 4 1.13a4.06 4.06 0 0 0-.6-2.96c-.68-.96-1.89-1.5-3.4-1.5-1.52 0-2.73.54-3.42 1.5a4.07 4.07 0 0 0-.58 2.96 7.8 7.8 0 0 1 4-1.13zm0 2.16c-4.27 0-7.87 5.21-7.87 11.4 0 5.23 4.6 7.6 7.87 7.6 3.26 0 7.86-2.37 7.86-7.6 0-6.19-3.6-11.4-7.86-11.4z"/></defs><g><g transform="translate(-1698 -1630)"><use fill="#5b6779" xlink:href="#ddw3a"/></g></g></svg>