<svg xmlns="http://www.w3.org/2000/svg" xmlns:xlink="http://www.w3.org/1999/xlink" width="96" height="55" viewBox="0 0 96 55"><defs><path id="4i93a" d="M1783.82 1404c-.19.24-18.58 25.01-45.64 25.01-26.5 0-46.19-23.43-46.19-25.42 0-.22.1-.44.26-.61.46-.59 20.05-25 45.93-25 23.8 0 44.72 23.96 45.6 24.98.25.29.26.72.04 1.03zm-21.92-.5a23.81 23.81 0 0 0-23.72-23.85 23.8 23.8 0 0 0-23.71 23.85 23.8 23.8 0 0 0 23.71 23.85 23.8 23.8 0 0 0 23.72-23.85zm-36.53 21.98a25.53 25.53 0 0 1-.55-43.63c-17.02 5.52-29.23 19.69-31.05 21.88 1.5 2.43 13.82 16.61 31.6 21.75zm56.7-21.94c-2.44-2.67-14.46-15.24-29.45-21a25.53 25.53 0 0 1-1.45 42.83c17.05-5.17 28.62-18.94 30.9-21.83zm-32.75-4.2v19.6c0 .47-.37.84-.83.84h-21.01a.83.83 0 0 1-.83-.83v-19.6c0-.46.37-.83.83-.83h3.98v-5.6c0-2.5-.01-5.33 1.75-7.11 1.09-1.1 2.65-1.62 4.77-1.62 2.18 0 3.76.53 4.84 1.62 1.73 1.75 1.7 4.5 1.68 7.15v5.56h3.99c.46 0 .83.37.83.83zm-16.2-.82h9.72v-5.58c.03-2.42.04-4.7-1.2-5.96-.75-.76-1.94-1.13-3.66-1.13-1.66 0-2.84.37-3.6 1.13-1.27 1.3-1.27 3.65-1.26 5.93V1398.51zm14.54 1.66h-19.36v17.94h19.36zm-16.21 2.11h13.07c.46 0 .83.38.83.84v5.12c0 .46-.37.83-.83.83h-4.18l-.18.03c-.06 0-.11-.02-.17-.03h-4.01c-.06.01-.11.03-.18.03-.06 0-.11-.02-.17-.03h-4.18a.83.83 0 0 1-.83-.83v-5.12c0-.46.37-.84.83-.84zm7.88 5.12v-3.45h-2.7v3.45zm4.36-3.45h-2.7v3.45h2.7zm-11.42 3.45h2.7v-3.45h-2.7z"/></defs><g><g transform="translate(-1690 -1376)"><use fill="#5b6779" xlink:href="#4i93a"/></g></g></svg>