<svg xmlns="http://www.w3.org/2000/svg" xmlns:xlink="http://www.w3.org/1999/xlink" width="65" height="61" viewBox="0 0 65 61"><defs><path id="iz6ia" d="M1772.15 1828h-19.28a.8.8 0 0 1-.8-.8v-7.04h-14.12v6.24h7.98c.45 0 .81.36.81.8a.8.8 0 0 1-.8.8h-17.59a.8.8 0 0 1-.8-.8c0-.44.36-.8.8-.8h7.99v-6.24h-21.85a3.52 3.52 0 0 1-3.52-3.5v-8.84c0-1.93 1.58-3.5 3.52-3.5h42v-.7-.62h-42a3.52 3.52 0 0 1-3.52-3.5v-8.84c0-1.93 1.58-3.5 3.52-3.5h45.3a3.52 3.52 0 0 1 3.53 3.5v5.02c1.6.12 2.8.6 3.66 1.46 1.6 1.6 1.58 4.1 1.56 6.5v5h3.61c.45 0 .8.36.8.8v17.76a.8.8 0 0 1-.8.8zm-20.08-18.56c0-.44.36-.8.8-.8h3.61v-2.72h-41.99c-1.05 0-1.91.86-1.91 1.9v8.84c0 1.05.86 1.9 1.91 1.9h37.58zm6.03-12.3a5.46 5.46 0 0 1 3.6-1.46v-5.02c0-1.05-.85-1.9-1.9-1.9h-45.3c-1.06 0-1.92.85-1.92 1.9v8.84c0 1.05.86 1.9 1.91 1.9h42.04c.11-1.6.46-3.15 1.57-4.26zm-4.42 29.26h17.67v-16.16h-17.67zm13.25-22.77c.02-2.18.03-4.24-1.1-5.37-.55-.55-1.38-.87-2.51-.97v2.2c0 1.94-1.58 3.5-3.53 3.5h-1.7v1.33h1.7a3.52 3.52 0 0 1 3.53 3.5v.82h3.6zm-8.84 5h3.62v-.8c0-1.05-.86-1.9-1.92-1.9h-1.7v2.7zm1.15-10.36c-.74.73-1 1.87-1.1 3.13h1.65c1.06 0 1.92-.85 1.92-1.9v-2.21c-1.1.1-1.91.42-2.47.98zm9.27 20.03h-3.77a.81.81 0 0 1-.46 0h-3.54a.81.81 0 0 1-.45 0h-3.78a.8.8 0 0 1-.8-.8v-4.64c0-.44.36-.8.8-.8h12c.44 0 .8.36.8.8v4.64a.8.8 0 0 1-.8.8zm-11.2-1.6h2.4v-3.04h-2.4zm10.4 0v-3.04h-2.4v3.04zm-6.4-3.04v3.04h2.4v-3.04zm-38-18.76h-7.98a.8.8 0 0 1-.8-.8c0-.44.36-.8.8-.8h7.98c.44 0 .8.36.8.8a.8.8 0 0 1-.8.8zm0 3.01h-7.98a.8.8 0 0 1-.8-.8c0-.44.36-.8.8-.8h7.98c.44 0 .8.36.8.8a.8.8 0 0 1-.8.8zm31 .67a3.33 3.33 0 0 1-3.33-3.31 3.33 3.33 0 0 1 6.67 0c0 1.83-1.5 3.31-3.33 3.31zm0-5.03c-.94 0-1.72.77-1.72 1.72 0 .94.78 1.71 1.73 1.71s1.72-.77 1.72-1.71c0-.95-.77-1.72-1.72-1.72zm-31 18.5h-7.98a.8.8 0 0 1-.8-.8c0-.43.36-.8.8-.8h7.98c.44 0 .8.37.8.8a.8.8 0 0 1-.8.8zm0 3.03h-7.98a.8.8 0 0 1-.8-.8c0-.45.36-.8.8-.8h7.98c.44 0 .8.35.8.8a.8.8 0 0 1-.8.8zm0-37.35h-7.98a.8.8 0 0 1-.8-.8c0-.44.36-.8.8-.8h7.98c.44 0 .8.36.8.8a.8.8 0 0 1-.8.8zm0 3.02h-7.98a.8.8 0 0 1-.8-.8c0-.44.36-.8.8-.8h7.98c.44 0 .8.36.8.8a.8.8 0 0 1-.8.8zm36.48 5.09h-45.3a3.52 3.52 0 0 1-3.52-3.5v-8.84c0-1.93 1.58-3.5 3.52-3.5h45.3a3.52 3.52 0 0 1 3.53 3.5v8.84c0 1.93-1.58 3.5-3.53 3.5zm-45.3-14.24c-1.05 0-1.91.85-1.91 1.9v8.84c0 1.04.86 1.9 1.91 1.9h45.3c1.06 0 1.92-.86 1.92-1.9v-8.84c0-1.05-.86-1.9-1.92-1.9zm39.83 10.16a3.33 3.33 0 0 1-3.34-3.32c0-1.83 1.5-3.31 3.34-3.31a3.33 3.33 0 0 1 3.33 3.31c0 1.83-1.5 3.32-3.33 3.32zm0-5.03c-.95 0-1.73.77-1.73 1.71a1.72 1.72 0 0 0 3.45 0c0-.94-.77-1.71-1.72-1.71z"/></defs><g><g transform="translate(-1709 -1768)"><use fill="#5b6779" xlink:href="#iz6ia"/></g></g></svg>