<svg xmlns="http://www.w3.org/2000/svg" xmlns:xlink="http://www.w3.org/1999/xlink" width="102" height="66" viewBox="0 0 102 66"><defs><path id="ozlla" d="M1729.88 1524.73c0-.5.4-.91.9-.91H1756c.49 0 .89.4.89.9s-.4.91-.9.91h-25.22a.9.9 0 0 1-.9-.9zm26.13 11.63h-25.23a.9.9 0 0 1-.9-.9c0-.5.4-.91.9-.91H1756c.49 0 .89.4.89.9s-.4.91-.9.91zm-26.15 11.08c.08.28.03.58-.14.8a.89.89 0 0 1-.72.38h-28a.89.89 0 0 1-.72-.37.92.92 0 0 1-.13-.8c2.55-8.46 7.25-11.55 10.7-12.66a8.1 8.1 0 0 1-3.8-6.87 8.03 8.03 0 0 1 7.95-8.09 8.03 8.03 0 0 1 7.95 8.1 8.1 8.1 0 0 1-3.8 6.86c3.45 1.11 8.15 4.2 10.7 12.65zm-14.92-13.25h.11a6.23 6.23 0 0 0 6.12-6.27 6.23 6.23 0 0 0-6.17-6.27 6.23 6.23 0 0 0-6.17 6.27 6.23 6.23 0 0 0 6.11 6.27zm12.83 12.61c-4.08-11.69-12.58-10.8-12.66-10.8h-.06l-.05.01h-.1c-.36-.05-8.61-.84-12.67 10.8zm60.23-5.79v30.07c0 .5-.4.9-.9.9h-31.84a.9.9 0 0 1-.9-.9v-10.63h-64.47a.9.9 0 0 1-.9-.9v-50.64c0-.5.4-.9.9-.9h81.3c.49 0 .88.4.88.9v9.28c2.73.14 4.78.88 6.18 2.32 2.51 2.57 2.48 6.7 2.45 10.7v8.9h6.4c.5 0 .9.4.9.9zm-11.01-19.22c-1.21-1.24-3.1-1.85-5.8-1.85-2.63 0-4.5.6-5.71 1.85-2.05 2.09-2.04 5.78-2.03 9.36v1.37c-.02 2.04 0 5.85 0 7.59h15.46l.01-8.92c.03-3.79.06-7.37-1.93-9.4zm-22.62 36.85V1541c0-.5.4-.9.89-.9h6.4V1531.15c0-3.76-.01-8.02 2.55-10.64 1.41-1.44 3.43-2.18 6.08-2.32v-8.37h-79.51v48.82zm31.85-16.72h-30.07v28.25h30.07zm-24.94 3.98h19.81c.5 0 .9.4.9.9v7.86c0 .5-.4.9-.9.9h-6.34a.86.86 0 0 1-.26.06.86.86 0 0 1-.27-.05h-6.07a.86.86 0 0 1-.27.05.86.86 0 0 1-.27-.05h-6.33a.9.9 0 0 1-.9-.9v-7.86c0-.5.4-.91.9-.91zm12.32 7.86v-6.05h-4.83v6.05zm6.6-6.05h-4.82v6.05h4.82zm-18.03 6.05h4.82v-6.05h-4.82z"/></defs><g><g transform="translate(-1687 -1507)"><use fill="#5b6779" xlink:href="#ozlla"/></g></g></svg>