<svg xmlns="http://www.w3.org/2000/svg" xmlns:xlink="http://www.w3.org/1999/xlink" width="280" height="76" viewBox="0 0 280 76"><defs><path id="miyva" d="M1215.63 58.02a18.75 18.75 0 0 1-11.77 16.25l-.68-3.77a15.02 15.02 0 0 0 8.75-12.72 15 15 0 0 0-13.95-15.96 15.04 15.04 0 1 0-7.21 28.64l-1.14 3.58a18.78 18.78 0 0 1-11.23-18.44 18.69 18.69 0 0 1 19.82-17.5 18.72 18.72 0 0 1 17.41 19.92z"/><path id="miyvb" d="M1197.02 50.2a6.57 6.57 0 1 1 3 12.4v8.71a2.83 2.83 0 1 1-5.68 0v-8.56a6.56 6.56 0 0 1 2.68-12.55z"/><path id="miyvc" d="M1227.06 57.01a30.1 30.1 0 0 1-14.16 25.64l-1.78-3.58a26.09 26.09 0 0 0 11.95-23.8h3.94a31 31 0 0 1 .05 1.74zm-29.48 30c-12.46 0-23.12-7.88-27.43-19.01h4.28a25.53 25.53 0 0 0 23.86 15v4l-.7.01zm0-60c7.24 0 13.87 2.66 19 7.07l-2.38 3.19a25.19 25.19 0 0 0-16.62-6.26c-12.42 0-22.77 9.03-25.07 20.99h-4c2.35-14.18 14.47-24.99 29.07-24.99z"/></defs><g><g transform="translate(-1160 -26)"><g><g fill="#0ebed9" font-family="'SitkaBanner','SitkaBanner'" font-size="80.19" font-style="none" font-weight="400" style="text-transform:uppercase;line-height:30px"><text dominant-baseline="text-before-edge" font-family="Helvetica, Arial, sans-serif" transform="translate(1249 32)"><tspan letter-spacing="2" style="font-kerning:normal">Veridax</tspan></text></g></g><g><g fill="#fff" font-family="'Montserrat','Montserrat-Light'" font-size="35.87" font-style="none" font-weight="lighter" style="line-height:45.6556px"><text dominant-baseline="text-before-edge" font-family="Helvetica, Arial, sans-serif" transform="translate(1255 77)"><tspan letter-spacing=".9" style="font-kerning:normal">Personal Data Protection and </tspan><tspan letter-spacing=".9" style="font-kerning:normal">Application Security Converged</tspan></text></g></g><g><use fill="#fff" xlink:href="#miyva"/></g><g><use fill="#0ebed9" xlink:href="#miyvb"/></g><g><use fill="#fff" xlink:href="#miyvc"/></g></g></g></svg>