<svg xmlns="http://www.w3.org/2000/svg" xmlns:xlink="http://www.w3.org/1999/xlink" width="73" height="66" viewBox="0 0 73 66"><defs><path id="20gda" d="M199.63 270.02a18.75 18.75 0 0 1-11.77 16.25l-.68-3.77a15.02 15.02 0 0 0 8.75-12.72 15 15 0 0 0-13.95-15.96 15.04 15.04 0 1 0-7.21 28.64l-1.14 3.58a18.78 18.78 0 0 1-11.23-18.44 18.69 18.69 0 0 1 19.82-17.5 18.72 18.72 0 0 1 17.41 19.92z"/><path id="20gdb" d="M181.02 262.2a6.57 6.57 0 1 1 3 12.4v8.72a2.83 2.83 0 1 1-5.68 0v-8.57a6.56 6.56 0 0 1 2.68-12.55z"/><path id="20gdc" d="M211.06 269.01a30.1 30.1 0 0 1-14.16 25.64l-1.78-3.58a26.09 26.09 0 0 0 11.95-23.8h3.94c.03.58.05 1.16.05 1.74zm-29.48 30c-12.46 0-23.12-7.88-27.43-19.01h4.28a25.52 25.52 0 0 0 23.86 15v4l-.7.01zm0-60c7.24 0 13.87 2.66 19 7.07l-2.38 3.19a25.19 25.19 0 0 0-16.62-6.26c-12.42 0-22.77 9.03-25.07 20.99h-4c2.35-14.18 14.47-24.99 29.07-24.99z"/></defs><g><g transform="translate(-144 -238)"><use fill="#fff" xlink:href="#20gda"/></g><g transform="translate(-144 -238)"><use fill="#0ebed9" xlink:href="#20gdb"/></g><g transform="translate(-144 -238)"><use fill="#fff" xlink:href="#20gdc"/></g></g></svg>